<?xml version="1.0" encoding="UTF-8" standalone="no"?>
<!DOCTYPE svg PUBLIC "-//W3C//DTD SVG 1.1//EN"
 "http://www.w3.org/Graphics/SVG/1.1/DTD/svg11.dtd">
<!-- Generated by graphviz version 2.40.1 (20161225.0304)
 -->
<!-- Title: G Pages: 1 -->
<svg width="246pt" height="98pt"
 viewBox="0.00 0.00 245.61 98.00" xmlns="http://www.w3.org/2000/svg" xmlns:xlink="http://www.w3.org/1999/xlink">
<g id="graph0" class="graph" transform="scale(1 1) rotate(0) translate(4 94)">
<title>G</title>
<polygon fill="#ffffff" stroke="transparent" points="-4,4 -4,-94 241.6104,-94 241.6104,4 -4,4"/>
<!-- node0 -->
<g id="node1" class="node">
<title>node0</title>
<polygon fill="none" stroke="#000000" points="144,-90 90,-90 90,-54 144,-54 144,-90"/>
<text text-anchor="middle" x="117" y="-67.8" font-family="Times,serif" font-size="14.00" fill="#000000">2: A</text>
</g>
<!-- node3 -->
<g id="node4" class="node">
<title>node3</title>
<polygon fill="none" stroke="#000000" points="237.4168,-63 180.1935,-63 180.1935,-27 237.4168,-27 237.4168,-63"/>
<text text-anchor="middle" x="208.8052" y="-40.8" font-family="Times,serif" font-size="14.00" fill="#000000">3: GAT</text>
</g>
<!-- node0&#45;&gt;node3 -->
<g id="edge1" class="edge">
<title>node0&#45;&gt;node3</title>
<path fill="none" stroke="#000000" d="M144.048,-64.0451C152.2718,-61.6265 161.4728,-58.9205 170.299,-56.3247"/>
<polygon fill="#000000" stroke="#000000" points="171.4268,-59.6413 180.0329,-53.462 169.4517,-52.9257 171.4268,-59.6413"/>
</g>
<!-- node1 -->
<g id="node2" class="node">
<title>node1</title>
<polygon fill="none" stroke="#000000" points="144,-36 90,-36 90,0 144,0 144,-36"/>
<text text-anchor="middle" x="117" y="-13.8" font-family="Times,serif" font-size="14.00" fill="#000000">2: C</text>
</g>
<!-- node1&#45;&gt;node3 -->
<g id="edge2" class="edge">
<title>node1&#45;&gt;node3</title>
<path fill="none" stroke="#000000" d="M144.048,-25.9549C152.2718,-28.3735 161.4728,-31.0795 170.299,-33.6753"/>
<polygon fill="#000000" stroke="#000000" points="169.4517,-37.0743 180.0329,-36.538 171.4268,-30.3587 169.4517,-37.0743"/>
</g>
<!-- node2 -->
<g id="node3" class="node">
<title>node2</title>
<polygon fill="none" stroke="#000000" points="54,-63 0,-63 0,-27 54,-27 54,-63"/>
<text text-anchor="middle" x="27" y="-40.8" font-family="Times,serif" font-size="14.00" fill="#000000">0: AT</text>
</g>
<!-- node2&#45;&gt;node0 -->
<g id="edge4" class="edge">
<title>node2&#45;&gt;node0</title>
<path fill="none" stroke="#000000" d="M54.003,-53.1009C62.204,-55.5612 71.3599,-58.308 80.095,-60.9285"/>
<polygon fill="#000000" stroke="#000000" points="79.121,-64.2904 89.705,-63.8115 81.1325,-57.5856 79.121,-64.2904"/>
</g>
<!-- node2&#45;&gt;node1 -->
<g id="edge3" class="edge">
<title>node2&#45;&gt;node1</title>
<path fill="none" stroke="#000000" d="M54.003,-36.8991C62.204,-34.4388 71.3599,-31.692 80.095,-29.0715"/>
<polygon fill="#000000" stroke="#000000" points="81.1325,-32.4144 89.705,-26.1885 79.121,-25.7096 81.1325,-32.4144"/>
</g>
</g>
</svg>
